<?xml version="1.0" encoding="UTF-8"?>
<svg version="1.1" viewBox="0 0 1000 1000" width="1000" height="1000" xmlns="http://www.w3.org/2000/svg">
<path transform="translate(480,18)" d="m0 0h39l33 3 27 4 29 6 27 8 23 8 22 9 24 11 25 14 14 9 22 15 13 10 14 11 16 15 6 5v2l4 2 6 7 15 15 9 11 12 14 13 18 13 20 13 22 11 20 12 26 10 26 12 37 6 24 5 28 3 20 3 33 1 20v15l-2 32-3 29-6 35-7 29-10 31-10 27-12 27-10 19-14 24-16 24-10 14-9 11-11 13-11 12-14 15-16 15-11 10-13 10-19 14-15 10-21 13-24 13-27 12-27 10-15 5-29 8-27 5-20 3-36 3h-35l-35-3-38-6-25-6-29-9-29-11-26-12-21-11-21-13-15-10-18-13-16-13-11-10-8-7-25-25-7-8-12-14-13-17-11-16-11-17-14-24-8-15-12-26-10-26-9-28-8-30-5-26-4-29-3-37v-37l3-38 6-40 6-26 9-31 12-33 9-21 8-17 13-23 13-22 7-10 12-17 13-16 9-11 7-7 7-8 23-23 8-7 10-9 16-12 14-10 15-10 25-15 27-14 29-12 25-9 27-8 29-6 28-4z" fill="#402A2D"/>
<path transform="translate(325,504)" d="m0 0h8l13 10 12 11 11 9 15 13 11 9 16 15 11 10 24 1h14l3-1h120l8-7 23-15 11-8 15-13 10-9 11-8 7-6 5-1h7l4 5v9l-10 35-10 26 7-1 20-13 13-11 30-30 8-10 3-2h8l5 4v8l-4 14-7 11-2 4 6-2 28-4 55-2 15-2h9l12 6 15 10 17 10 14 10 12 11 19 19-7 25-12 35-11 26-9 19-10 18-10 17-16 24-10 14-9 11-11 13-11 12-14 15-16 15-11 10-13 10-19 14-15 10-21 13-24 13-27 12-27 10-15 5-29 8-27 5-20 3-36 3h-35l-35-3-38-6-25-6-29-9-29-11-26-12-21-11-21-13-15-10-18-13-16-13-11-10-8-7-25-25-7-8-12-14-13-17-11-16-11-17-14-24-8-15-12-26-10-26-9-28-1-6 25-14 24-14 33-17 27-13 16-5 17-2 2-1h28l9 1 8 1 8 2-4-11-1-6v-12l5-5 5 1 24 24 10 7 8 5 16 7 7 2-1-17-3-19-1-20v-17l2-4z" fill="#907F6F"/>
<path transform="translate(480,18)" d="m0 0h39l33 3 27 4 29 6 27 8 23 8 22 9 24 11 25 14 14 9 22 15 13 10 14 11 16 15 6 5v2l4 2-7 11-6 8-16 29-16 33-14 33-13 35-10 29-3 2-13-2-11-2-14-2-8-2-12-1-11-2v-2l9-6 8-10 9-15h1l3 16 4 8 5 4 3 1h7l8-4 8-9 11-17 14-24 14-26 8-15 11-23 13-27 4-11v-18l-4-3h-7l-5 5-8 11-14 28-11 23-11 22-13 23-10 18-4 4-2-53-4-6-3-2h-10l-6 5-7 18-10 25-9 18h-1l1-20 6-45 8-51 11-56 4-25-2-9-5-4h-5l-4 7-9 38-9 43-11 49-6 36-4 26v30l3 12 6 9h-7l-13-2h-7l-5-1h-8l-5-1v-2l8-7 5-5 8-11 7-13 4-20 2-6 2-15 4-20 6-37 5-25 4-24 3-48 1-8v-12l-4-7-3-2h-7l-5 6-1 2-10 100-5 36-7 34-7 24-6 14-9 14-9 10-7 5-5-1-5-6-5-12-5-21-4-32-3-41-1-26v-18l1-32 2-23 1-11v-23l-2-5-2-1h-7l-4 7-6 14-3 14-3 23-2 30v31l2 38 3 36 4 28 5 20 6 15 5 8 7 1v1l-6 1h-82l-10 1h-9l-10 1h-8l-10 1-15 1-14 2-16 1-26 3-12 2-10 1-8 2-13 2-15 3-7 1-7 2-15 3-7 2-11 2-5 1-3-3-1-10-4-21-1-5 2-2 12 13 13 9 10 4h16l14-7 9-8 7-10 4-11h1l1 20 3 5 4 3h9l6-4 2-5 2-63 1-18 5-3 3-2 15-2h16v35l-1 32-1 12 5 2 4 3h7l9-7 1-5 1-31v-78l-3-33-5-29-5-18-7-16-10-15-5-5v-2l-4-2-8-6-7-3-5-1h-8l-10 4-5 4-6 10-5 19-1 8v42l3 54 1 26v19l-2 44-2-4-5-5-2-1h-9l-5 4-5 12-7 8-5 3h-7l-11-8-10-11-9-16-8-19-7-23-5-25-1-9v-20l3-14 5-12 8-10 9-8 16-9 11-3 11-2 5-5 1-9-3-6-6-3h-11l-16 4-19 10-13 10-7 7-9 14-5 11-4 15-2 17-2-2-10-24-3-2-3-1 12-12 8-7 10-9 16-12 14-10 15-10 25-15 27-14 29-12 25-9 27-8 29-6 28-4z" fill="#31A187"/>
<path transform="translate(673,514)" d="m0 0h7l4 5v9l-10 35-10 26 7-1 20-13 13-11 30-30 8-10 3-2h8l5 4v8l-4 14-7 11-2 4 6-2 28-4 55-2 15-2h9l12 6 15 10 17 10 14 10 12 11 19 19-7 25-12 35-2 2v-2h-34l-18 1h-16l-9-3h-27l-29 3-42 8-31 8-18 5-9 3-18 7-23 10-15 8-14 9-8 7-1-3-2-9-3-14v-32l1-21 3-23 11-44 13-45 9-21 7-6 15-12z" fill="#907F6F"/>
<path transform="translate(325,504)" d="m0 0h8l13 10 10 9 11 33 5 20 8 31 5 18 5 26 4 15 2 25 3 19v17l-4 15-5-2-16-10-17-9-4-1v-2l-9-3-22-9-34-10-19-5-28-6-30-5-21-2-45-1-26-2h-48l-4-8-9-28-1-6 25-14 24-14 33-17 27-13 16-5 17-2 2-1h28l9 1 8 1 8 2-4-11-1-6v-12l5-5 5 1 24 24 10 7 8 5 16 7 7 2-1-17-3-19-1-20v-17l2-4z" fill="#907F6F"/>
<path transform="translate(420,25)" d="m0 0h7l-1 2-11 4-15 8-5 5-1 3v8l4 6 5 2 8-1 16-9 17-4 13-1 1 108 2 64 1 50 1 31 5 5 8 3-1 2-10 1h-9l-10 1h-8l-10 1-15 1-14 2-16 1-26 3-12 2-10 1-8 2-13 2-15 3-7 1-7 2-15 3-7 2-11 2-5 1-3-3-1-10-4-21-1-5 2-2 12 13 13 9 10 4h16l14-7 9-8 7-10 4-11h1l1 20 3 5 4 3h9l6-4 2-5 2-63 1-18 5-3 3-2 15-2h16v35l-1 32-1 12 5 2 4 3h7l9-7 1-5 1-31v-78l-3-33-5-29-5-18-7-16-10-15-5-5v-2l-4-2-8-6-7-3-5-1h-8l-10 4-5 4-6 10-5 19-1 8v42l3 54 1 26v19l-2 44-2-4-5-5-2-1h-9l-5 4-5 12-7 8-5 3h-7l-11-8-10-11-9-16-8-19-7-23-5-25-1-9v-20l3-14 5-12 8-10 9-8 16-9 11-3 11-2 5-5 1-9-3-6-6-3h-11l-16 4-19 10-13 10-7 7-9 14-5 11-4 15-2 17-2-2-10-24-3-2-3-1 12-12 8-7 10-9 16-12 14-10 15-10 25-15 27-14 29-12 25-9 27-8z" fill="#31A187"/>
<path transform="translate(172,686)" d="m0 0 11 3 14 2 24 3 36 7 40 10 32 11 24 11 23 12 9 7 5 4 3 17-1 22-3 21-4 15-6 16-19 39-10 18-24 36-4 2-20-9-23-12-21-13-15-10-18-13-16-13-11-10-8-7-25-25-7-8-12-14-13-17v-2l51-1 25-5 20-6 13-5 10 2 37 12 32 12 6 1 2-1v-6l-11-5-36-13-32-10-10-3-11-14-12-14-17-17-11-8-7-7-10-14z" fill="#907F6F"/>
<path transform="translate(815,690)" d="m0 0h11l-1 2-9 4-11 12-9 11-16 17-12 16-5 5-38 12-32 12-6 3v6l6 1 26-10 36-12 2 1-5 10 14 2 13 1h17l29-5 30-8 17-6 16-7-2 5-14 21-10 14-9 11-11 13-11 12-14 15-16 15-11 10-13 10-19 14-15 10-21 13-24 13-16 7-6-8-7-9-12-21-14-30-11-34-7-33-3-26v-25l9-7 17-10 23-11 23-9 25-8 31-8 29-6 27-4z" fill="#907F6F"/>
<path transform="translate(350,54)" d="m0 0h8l10 3 9 6 5 4 9 11 9 15 6 15 6 25 4 28 2 24v78l-1 31-2 6-9 7h-7l-9-6 1-44 1-35-25 2-8 2-3 3h-3v18l-2 63-3 6-6 4h-9l-7-6-1-3-1-16-6 12-11 12-10 6-7 3h-16l-12-5-13-10-7-7-6-8-9-30-12-39-9-32-5-14v-14l3-17 5-13 6-11 8-10 7-7 16-11 17-8 13-3h11l7 4 3 6-1 9-5 5-4 2-16 3-16 8-11 9-8 10-5 12-3 14v20l3 20 6 25 8 22 8 17 7 10 9 10 9 6h7l8-6 5-8 3-8 6-5h9l6 4 2 3 1-12 1-28v-19l-2-45-2-35v-42l3-17 4-12 7-10 10-6z" fill="#9E3046"/>
<path transform="translate(469,838)" d="m0 0 5 1 11 16 12 17 7 10 3 1 5-3 9-12 11-18 8-12 9 2 11 4 16 13 7 10 8 15 5 14 2 10 2 15 3 16 1 11v17l4 1-28 6-27 4-36 3h-35l-35-3-38-6 2-1-1-20 2-26 5-21 7-19 8-17 8-11 7-7 15-7z" fill="#B2B0A4"/>
<path transform="translate(835,169)" d="m0 0 5 5 11 12 8 10 14 19 13 20 13 22 11 20 12 26 10 26 12 37 6 24 4 23-6-4-23-11-16-8-22-10-9-3-5-1-13-6-29-9-24-7-14-5-1-2v-7l10-51 9-42 10-40 8-22z" fill="#A77979"/>
<path transform="translate(155,179)" d="m0 0 2 1 10 26 6 21 11 47 12 60 2 11v7l-3 3-25 8-31 9-26 9-26 11-40 20h-1l1-10 6-26 9-31 12-33 9-21 8-17 13-23 13-22 7-10 12-17 13-16z" fill="#A77979"/>
<path transform="translate(72,674)" d="m0 0h47l26 2 45 1 28 3 23 4 20 4 15 4 17 4 20 6 9 3 24 10 7 3v2l6 1 17 9 14 9 6 5 1 7-2 2 2 16v22l-2 24-5 21-6 17-14 27-12 20-9 14-12 16-10 12-3-1 8-11 11-17 6-9 15-28 15-31 8-24 3-18 2-23-1-15-2-9-10-8-18-10-25-12-24-9-19-6-40-10-38-7-28-3-14-4 12 16 10 9 8 6 19 19 18 22v2l10 2 41 13 32 12 6 3 1 1v6l-3 2-6-1-27-10-36-12-13-4-6 1-19 7-24 6-12 2h-52l-8-11-10-15-17-29-8-15-12-26-6-16z" fill="#574140"/>
<path transform="translate(822,676)" d="m0 0h27l9 3h16l18-1h26l8 1-1 7-9 21-8 17-10 18-9 15-19 9-25 8-30 7-19 3h-17l-19-2-8-2 1-5 3-5-20 6-31 11-12 5-6-1-1-1v-6l5-3 26-10 48-16 12-16 9-10 10-11 9-11 12-13 8-3h-10l-24 3-36 7-29 7-29 9-21 8-24 11-18 10-8 6-3 2v25l3 26 8 36 11 33 16 34 13 21 8 9v2l-4 2-4-1-11-14-12-20-7-16-8-20-7-22-8-33-3-21v-42l-3-1-1-6 6-7 22-14 24-11 19-8 16-5 9-3 21-6 30-7 32-6z" fill="#574140"/>
<path transform="translate(683,66)" d="m0 0 7 1 5 6 1 7-6 36-9 45-10 65-4 31-1 18 12-25 10-27 4-8 6-5h10l6 5 2 4 2 52 15-26 15-28 16-32 11-23 7-13 9-11 2-1h7l5 4v18l-6 15-17 35-18 36-13 23-13 22-12 17-8 7-5 2h-7l-7-4-4-5-3-8-2-11-10 16-9 10-5 3h-2v2h-9l-7-3-5-6-3-8-1-6v-30l2-13 5-32 6-31 13-58 7-33 6-25z" fill="#9E3046"/>
<path transform="translate(548,43)" d="m0 0h7l4 4 1 3v23l-2 27-1 7-1 32v18l2 41 3 36 4 27 5 19 6 12 3 3 6-1 10-9 9-13 7-14 6-18 7-29 6-36 6-54 6-62 4-6 3-3h7l5 4 3 6v12l-1 8-3 48-6 35-5 25-7 43-4 22-6 24-8 14-9 12-8 7-3 1v2h-25l-9-2-15-2-7-11-6-16-5-23-4-32-3-41-1-23v-31l2-30 4-29 4-13 6-13z" fill="#9E3046"/>
<path transform="translate(466,21)" d="m0 0h16l24 2 19 5 8 4 4 5v7l-3 8-5 4-9-1-13-4-12-2-12-1 1 102 2 64 1 45v43l-9 6-7 1-7-4-3-4-1-31-2-82-1-32v-108l-23 4-11 4-12 7-8 1-6-3-4-6v-8l3-5 6-5 17-9 16-4 15-2z" fill="#9E3046"/>
<path transform="translate(325,504)" d="m0 0h8l13 10 10 9 11 33 5 20 8 31 5 18 5 26 4 15 2 25 3 19v17l-4 15-5-2-16-10-2-1-3-20-14-56-7-19-10-19-11-17-7-12v-3h4l-1-17-3-19-1-20v-17l2-4z" fill="#B1AFA3"/>
<path transform="translate(673,514)" d="m0 0h7l4 5v9l-10 35-10 26 7-1 11-7h2l-2 6-13 28-10 28-8 22-4 12-4 11-5 18-1 7-1 17-13 8-8 7-1-3-2-9-3-14v-32l1-21 3-23 11-44 13-45 9-21 7-6 15-12z" fill="#B1AFA3"/>
<path transform="translate(276,89)" d="m0 0h11l7 4 3 6-1 9-5 5-4 2-16 3-16 8-11 9-8 10-5 12-3 14v20l3 20 6 25 8 22 8 17 7 10 9 10 9 6h7l8-6 5-8 3-8 6-5h9l6 4 3 7-1 10-6 12-11 12-10 6-7 3h-16l-12-5-13-10-7-7-6-8-9-30-12-39-9-32-5-14v-14l3-17 5-13 6-11 8-10 7-7 16-11 17-8z" fill="#9E3046"/>
<path transform="translate(172,686)" d="m0 0 11 3 14 2 24 3 36 7 40 10 32 11 24 11 23 12 5 5-17 2h-13l-21-4-18-2-21-1-17-3-3-2-23-3-18-2-14-3-16-16-11-8-7-7-10-14z" fill="#B1AFA3"/>
<path transform="translate(815,690)" d="m0 0h11l-1 2-9 4-11 12-9 11-10 11-16 6-72 14-20 4-17 1h-17l-16-4 1-3 21-12 21-10 23-9 25-8 31-8 29-6 27-4z" fill="#B1AEA2"/>
<path transform="translate(822,676)" d="m0 0h27l5 1v2l2 1-9 3-17 5-2 1-31 4-38 7-33 8-29 9-21 8-24 11-18 10-8 6-3 2v25l3 26 8 36 11 33 16 34 13 21 8 9v2l-4 2-4-1-11-14-12-20-7-16-8-20-7-22-8-33-3-21v-42l-3-1-1-6 6-7 22-14 24-11 19-8 16-5 9-3 21-6 30-7 32-6z" fill="#230E16"/>
<path transform="translate(160,678)" d="m0 0h40l18 2 23 4 20 4 15 4 17 4 20 6 9 3 24 10 7 3v2l6 1 17 9 14 9 6 5 1 7-2 2 2 16v22l-2 24-5 21-6 17-14 27-12 20-9 14-12 16-10 12-3-1 8-11 11-17 6-9 15-28 15-31 8-24 3-18 2-23-1-15-2-9-10-8-18-10-25-12-24-9-19-6-40-10-38-7-28-3-13-4-5-2-16-3 3-3z" fill="#220E16"/>
<path transform="translate(354,81)" d="m0 0 5 1 10 10 8 14 5 13 5 23 3 22 2 25v7h-19l-21 4-1-8-3-53v-36l3-16z" fill="#31A187"/>
<path transform="translate(498,813)" d="m0 0h16l15 2 10 3 8 6-1 5-8 14-10 15-11 17-7 8-4 1-5-4-12-18-13-18-9-13-2-3 1-4 5-4 10-4z" fill="#7F4345"/>
<path transform="translate(136,756)" d="m0 0h32l30 4 31 7 15 4-2 2-22 8-24 6-12 2h-52l-8-11-10-15-2-5h11z" fill="#574140"/>
<path transform="translate(848,748)" d="m0 0h32l12 2-2 6-16 8-16 6-25 7-24 5-13 2h-17l-19-2-8-2 1-5 3-5-1-2 36-10 27-6z" fill="#574140"/>
<path transform="translate(140,747)" d="m0 0h24l26 3 31 6 29 7 41 13 32 12 6 3 1 1v6l-3 2-6-1-27-10-36-12-13-4-8-3-34-8-26-4-9-1h-32l-13 2-9-1-2-2 5-5 6-2z" fill="#200C14"/>
<path transform="translate(852,739)" d="m0 0h24l17 2 3 1-1 5-2 3-13-1h-32l-30 4-31 7-28 8h-4v2l-36 12-26 10-6-1-1-1v-6l5-3 26-10 42-14 10-2 30-8 27-5z" fill="#200C14"/>
<path transform="translate(285,820)" d="m0 0h33l3 3v5l-2 2-56 2-47 4-30 3h-12l-6-6 1-3 36-4 56-5z" fill="#251118"/>
<path transform="translate(698,812)" d="m0 0h33l37 2 72 7-2 5-4 4h-14l-53-5-14-1-56-2-2-2 1-7z" fill="#251118"/>
<path transform="translate(615,744)" d="m0 0 6 4 7 1-5 5v25l3 26 8 36 11 33 16 34 13 21 8 9v2l-4 2-4-1-11-14-12-20-7-16-8-20-7-22-8-33-3-21v-42l-3-1-1-6z" fill="#452F31"/>
<path transform="translate(317,727)" d="m0 0 6 2 5 2h12l3-3 26 13 11 7 1 2-17 2h-13l-21-4-18-2-21-1-17-3-3-3h22l6 1 7-5 6-3z" fill="#A8A194"/>
<path transform="translate(395,744)" d="m0 0 2 2v5l-2 2 2 16v22l-2 24-5 21-6 17-14 27-12 20-9 14-12 16-10 12-3-1 8-11 11-17 6-9 15-28 15-31 8-24 3-18 2-23-1-15-2-9-4-4 7 1z" fill="#452F31"/>
<path transform="translate(315,859)" d="m0 0h6l3 4-2 5-15 7-15 4-41 7-14 2h-8l-10-8v-1l44-6 28-5 16-5z" fill="#261119"/>
<path transform="translate(695,851)" d="m0 0h6l13 6 21 5 38 6 17 2v3l-8 6h-10l-43-7-17-4-17-7-3-4 2-5z" fill="#261119"/>
<path transform="translate(240,101)" d="m0 0m-1 1m-1 1m-2 1h2l-2 4-9 7-9 10-8 14-5 13-3 17-1 9-2-2-10-24-3-2-3-1 12-12 8-7 10-9 16-12z" fill="#34A288"/>
<path transform="translate(811,160)" d="m0 0v3l-1 2h-2l-2 5-8 15-10 19-9 19-4 8-4 9-6 14-8 20-5 14-4 10-9 28-1 2h-2l3-11 12-35 12-30 12-27 16-33 13-23 6-8z" fill="#584241"/>
<path transform="translate(655,526)" d="m0 0m-2 1 2 1-5 6-13 33-8 22-1-4 9-31 9-21z" fill="#A8A294"/>
<path transform="translate(322,504)" d="m0 0 3 1-4 1-1 4v17l1 20 3 19v17l-9-2 3-1 4-1-4-35v-35l2-4z" fill="#584241"/>
<path transform="translate(469,838)" d="m0 0 5 1 2 5-13 1-15 5-9 9v-3l8-8 15-7z" fill="#A9A396"/>
<path transform="translate(182,150)" d="m0 0h3l-2 4-15 15-3-1 7-8z" fill="#695753"/>
<path transform="translate(659,633)" d="m0 0 2 1-2 9-6 17h-1l1-10 3-12z" fill="#A9A295"/>
<path transform="translate(743,903)" d="m0 0 4 1-10 7-5 3-2-1 7-7z" fill="#B2ADA2"/>
<path transform="translate(320,535)" d="m0 0h1v9h2v16h-1l-2-13z" fill="#9B8E80"/>
<path transform="translate(331,931)" d="m0 0h4l-2 4-6 7-3-1z" fill="#503A3A"/>
<path transform="translate(325,790)" d="m0 0 4 1 1 1v6l-3 2-6-1v-1l6-1v-5z" fill="#4C3637"/>
<path transform="translate(688,782)" d="m0 0 3 1-2 1v5l6 1-2 2-6-1-1-1v-6z" fill="#4C3637"/>
<path transform="translate(750,559)" d="m0 0 8 1v1l-11 2-4 1 3-4z" fill="#584241"/>
<path transform="translate(905,273)" d="m0 0h3l3 8-3 1-3-7z" fill="#AA958D"/>
</svg>
